# xmcd CD database file
#
# Track frame offsets:
#	163
#	8974
#	17223
#	27354
#	39849
#	51863
#	58872
#	72842
#	86086
#	94726
#	102340
#	112120
#	115751
#	123968
#	138385
#	147527
#	155844
#	161857
#
# Disc length: 2257 seconds
#
# Revision: 6
# Processed by: cddbd v1.5.2PL0 Copyright (c) Steve Scherf et al.
# Submitted via: CDex 2.08
#
DISCID=0208cf12
DTITLE=XXXTentacion - ? [Questionmark]
DYEAR=2018
DGENRE=Hip-Hop - Rap
TTITLE0=XXXTentacion - Questionmark{Introduction~Instructions}
TTITLE1=XXXTentacion - Alone[Part3]
TTITLE2=XXXTentacion - Moonlight
TTITLE3=XXXTentacion - Sad!
TTITLE4=XXXTentacion - RemedyForABrokenHeart,The{WhyAmISoInLove}
TTITLE5=XXXTentacion - Floor555
TTITLE6=XXXTentacion - Numb
TTITLE7=XXXTentacion - Infinity[888] 
TTITLE8=XXXTentacion - Going Down!
TTITLE9=XXXTentacion - Pain =Bestfriend 
TTITLE10=XXXTentacion - $$$
TTITLE11=XXXTentacion - Love Yourself[Interlude]
TTITLE12=XXXTentacion - Smash
TTITLE13=XXXTentacion - I Don't Even Speak Spanish Lol 
TTITLE14=XXXTentacion - Changes
TTITLE15=XXXTentacion - Hope
TTITLE16=XXXTentacion - Schizophrenia
TTITLE17=XXXTentacion - Before I Close My Eyes
EXTD=YEAR: 2018
EXTT0=
EXTT1=
EXTT2=
EXTT3=
EXTT4=
EXTT5=
EXTT6=
EXTT7=
EXTT8=
EXTT9=
EXTT10=
EXTT11=
EXTT12=
EXTT13=
EXTT14=
EXTT15=
EXTT16=
EXTT17=
PLAYORDER=
